<mxfile host="app.diagrams.net" modified="2023-04-22T11:46:26.149Z" agent="Mozilla/5.0 (Windows NT 10.0; Win64; x64) AppleWebKit/537.36 (KHTML, like Gecko) Chrome/112.0.0.0 Safari/537.36 Edg/112.0.1722.48" etag="9MQMLQfJfZ6SgQm9OXtl" version="21.2.1" type="device">
  <diagram name="Page-1" id="RkLnrC9zRk-OTdj7nDP5">
    <mxGraphModel dx="2207" dy="1273" grid="1" gridSize="10" guides="1" tooltips="1" connect="1" arrows="1" fold="1" page="1" pageScale="1" pageWidth="850" pageHeight="1100" math="0" shadow="0">
      <root>
        <mxCell id="0" />
        <mxCell id="1" parent="0" />
        <mxCell id="kGb9gTylPbze4J-S7JM0-1" value="User" style="rounded=0;whiteSpace=wrap;html=1;" vertex="1" parent="1">
          <mxGeometry x="120" y="40" width="160" height="40" as="geometry" />
        </mxCell>
        <mxCell id="kGb9gTylPbze4J-S7JM0-2" value="System" style="rounded=0;whiteSpace=wrap;html=1;" vertex="1" parent="1">
          <mxGeometry x="560" y="40" width="160" height="40" as="geometry" />
        </mxCell>
        <mxCell id="kGb9gTylPbze4J-S7JM0-16" style="edgeStyle=orthogonalEdgeStyle;rounded=0;orthogonalLoop=1;jettySize=auto;html=1;exitX=0.25;exitY=1;exitDx=0;exitDy=0;entryX=0.625;entryY=-0.093;entryDx=0;entryDy=0;entryPerimeter=0;" edge="1" parent="1" source="kGb9gTylPbze4J-S7JM0-5" target="kGb9gTylPbze4J-S7JM0-10">
          <mxGeometry relative="1" as="geometry">
            <mxPoint x="210" y="204" as="targetPoint" />
          </mxGeometry>
        </mxCell>
        <mxCell id="kGb9gTylPbze4J-S7JM0-5" value="" style="rounded=0;whiteSpace=wrap;html=1;rotation=90;" vertex="1" parent="1">
          <mxGeometry x="401.25" y="313.75" width="477.5" height="20" as="geometry" />
        </mxCell>
        <mxCell id="kGb9gTylPbze4J-S7JM0-13" style="edgeStyle=orthogonalEdgeStyle;rounded=0;orthogonalLoop=1;jettySize=auto;html=1;entryX=0.178;entryY=1.174;entryDx=0;entryDy=0;entryPerimeter=0;exitX=0.396;exitY=-0.084;exitDx=0;exitDy=0;exitPerimeter=0;" edge="1" parent="1" source="kGb9gTylPbze4J-S7JM0-10" target="kGb9gTylPbze4J-S7JM0-5">
          <mxGeometry relative="1" as="geometry" />
        </mxCell>
        <mxCell id="kGb9gTylPbze4J-S7JM0-10" value="" style="rounded=0;whiteSpace=wrap;html=1;rotation=90;" vertex="1" parent="1">
          <mxGeometry x="126.1" y="180.46" width="147.79" height="10" as="geometry" />
        </mxCell>
        <mxCell id="kGb9gTylPbze4J-S7JM0-14" value="1.1 Request login page" style="text;html=1;align=center;verticalAlign=middle;resizable=0;points=[];autosize=1;strokeColor=none;fillColor=none;" vertex="1" parent="1">
          <mxGeometry x="325" y="144.35" width="150" height="30" as="geometry" />
        </mxCell>
        <mxCell id="kGb9gTylPbze4J-S7JM0-17" value="1.2. Serve request" style="text;html=1;align=center;verticalAlign=middle;resizable=0;points=[];autosize=1;strokeColor=none;fillColor=none;" vertex="1" parent="1">
          <mxGeometry x="340" y="180" width="120" height="30" as="geometry" />
        </mxCell>
        <mxCell id="kGb9gTylPbze4J-S7JM0-18" style="edgeStyle=orthogonalEdgeStyle;rounded=0;orthogonalLoop=1;jettySize=auto;html=1;exitX=0.835;exitY=0.066;exitDx=0;exitDy=0;exitPerimeter=0;entryX=0.314;entryY=1;entryDx=0;entryDy=0;entryPerimeter=0;" edge="1" parent="1" source="kGb9gTylPbze4J-S7JM0-10" target="kGb9gTylPbze4J-S7JM0-5">
          <mxGeometry relative="1" as="geometry">
            <mxPoint x="210" y="240" as="sourcePoint" />
            <mxPoint x="620" y="235" as="targetPoint" />
          </mxGeometry>
        </mxCell>
        <mxCell id="kGb9gTylPbze4J-S7JM0-19" value="1.3 Enter credentials" style="text;html=1;align=center;verticalAlign=middle;resizable=0;points=[];autosize=1;strokeColor=none;fillColor=none;" vertex="1" parent="1">
          <mxGeometry x="335" y="210" width="130" height="30" as="geometry" />
        </mxCell>
        <mxCell id="kGb9gTylPbze4J-S7JM0-21" value="" style="endArrow=classic;html=1;rounded=0;exitX=0.5;exitY=1;exitDx=0;exitDy=0;entryX=0.408;entryY=1;entryDx=0;entryDy=0;entryPerimeter=0;" edge="1" parent="1" source="kGb9gTylPbze4J-S7JM0-5" target="kGb9gTylPbze4J-S7JM0-5">
          <mxGeometry width="50" height="50" relative="1" as="geometry">
            <mxPoint x="540" y="330" as="sourcePoint" />
            <mxPoint x="530" y="280" as="targetPoint" />
            <Array as="points">
              <mxPoint x="500" y="324" />
              <mxPoint x="400" y="324" />
              <mxPoint x="400" y="280" />
              <mxPoint x="500" y="280" />
            </Array>
          </mxGeometry>
        </mxCell>
        <mxCell id="kGb9gTylPbze4J-S7JM0-22" value="1.3 Validate credentials" style="text;html=1;align=center;verticalAlign=middle;resizable=0;points=[];autosize=1;strokeColor=none;fillColor=none;" vertex="1" parent="1">
          <mxGeometry x="430" y="300" width="150" height="30" as="geometry" />
        </mxCell>
        <mxCell id="kGb9gTylPbze4J-S7JM0-23" value="" style="endArrow=classic;html=1;rounded=0;exitX=0.571;exitY=1.121;exitDx=0;exitDy=0;exitPerimeter=0;" edge="1" parent="1" source="kGb9gTylPbze4J-S7JM0-5">
          <mxGeometry width="50" height="50" relative="1" as="geometry">
            <mxPoint x="330" y="400" as="sourcePoint" />
            <mxPoint x="200" y="357" as="targetPoint" />
          </mxGeometry>
        </mxCell>
        <mxCell id="kGb9gTylPbze4J-S7JM0-24" value="1.4 Show error if invalid" style="text;html=1;align=center;verticalAlign=middle;resizable=0;points=[];autosize=1;strokeColor=none;fillColor=none;" vertex="1" parent="1">
          <mxGeometry x="335" y="333.75" width="150" height="30" as="geometry" />
        </mxCell>
        <mxCell id="kGb9gTylPbze4J-S7JM0-25" value="" style="endArrow=classic;html=1;rounded=0;exitX=0.5;exitY=1;exitDx=0;exitDy=0;entryX=0.408;entryY=1;entryDx=0;entryDy=0;entryPerimeter=0;" edge="1" parent="1">
          <mxGeometry width="50" height="50" relative="1" as="geometry">
            <mxPoint x="630" y="424" as="sourcePoint" />
            <mxPoint x="630" y="380" as="targetPoint" />
            <Array as="points">
              <mxPoint x="500" y="424" />
              <mxPoint x="400" y="424" />
              <mxPoint x="400" y="380" />
              <mxPoint x="500" y="380" />
            </Array>
          </mxGeometry>
        </mxCell>
        <mxCell id="kGb9gTylPbze4J-S7JM0-26" value="1.5 Authenticate credentials" style="text;html=1;align=center;verticalAlign=middle;resizable=0;points=[];autosize=1;strokeColor=none;fillColor=none;" vertex="1" parent="1">
          <mxGeometry x="420" y="400" width="170" height="30" as="geometry" />
        </mxCell>
        <mxCell id="kGb9gTylPbze4J-S7JM0-27" value="" style="endArrow=classic;html=1;rounded=0;exitX=0.8;exitY=1.095;exitDx=0;exitDy=0;exitPerimeter=0;" edge="1" parent="1" source="kGb9gTylPbze4J-S7JM0-5">
          <mxGeometry width="50" height="50" relative="1" as="geometry">
            <mxPoint x="550" y="460" as="sourcePoint" />
            <mxPoint x="200" y="467" as="targetPoint" />
          </mxGeometry>
        </mxCell>
        <mxCell id="kGb9gTylPbze4J-S7JM0-28" value="1.6 Show error if unauthantic" style="text;html=1;align=center;verticalAlign=middle;resizable=0;points=[];autosize=1;strokeColor=none;fillColor=none;" vertex="1" parent="1">
          <mxGeometry x="325" y="440" width="180" height="30" as="geometry" />
        </mxCell>
        <mxCell id="kGb9gTylPbze4J-S7JM0-29" value="" style="endArrow=classic;html=1;rounded=0;exitX=0.8;exitY=1.095;exitDx=0;exitDy=0;exitPerimeter=0;" edge="1" parent="1">
          <mxGeometry width="50" height="50" relative="1" as="geometry">
            <mxPoint x="629" y="497" as="sourcePoint" />
            <mxPoint x="201" y="497" as="targetPoint" />
          </mxGeometry>
        </mxCell>
        <mxCell id="kGb9gTylPbze4J-S7JM0-30" value="1.7 Redirect to landing page" style="text;html=1;align=center;verticalAlign=middle;resizable=0;points=[];autosize=1;strokeColor=none;fillColor=none;" vertex="1" parent="1">
          <mxGeometry x="331" y="470" width="170" height="30" as="geometry" />
        </mxCell>
        <mxCell id="kGb9gTylPbze4J-S7JM0-31" value="" style="rounded=0;whiteSpace=wrap;html=1;rotation=90;" vertex="1" parent="1">
          <mxGeometry x="126.1" y="670" width="147.79" height="10" as="geometry" />
        </mxCell>
        <mxCell id="kGb9gTylPbze4J-S7JM0-32" style="edgeStyle=orthogonalEdgeStyle;rounded=0;orthogonalLoop=1;jettySize=auto;html=1;exitX=0.25;exitY=1;exitDx=0;exitDy=0;entryX=0.625;entryY=-0.093;entryDx=0;entryDy=0;entryPerimeter=0;" edge="1" parent="1">
          <mxGeometry relative="1" as="geometry">
            <mxPoint x="629" y="669.65" as="sourcePoint" />
            <mxPoint x="205" y="669.65" as="targetPoint" />
          </mxGeometry>
        </mxCell>
        <mxCell id="kGb9gTylPbze4J-S7JM0-33" style="edgeStyle=orthogonalEdgeStyle;rounded=0;orthogonalLoop=1;jettySize=auto;html=1;entryX=0.178;entryY=1.174;entryDx=0;entryDy=0;entryPerimeter=0;exitX=0.396;exitY=-0.084;exitDx=0;exitDy=0;exitPerimeter=0;" edge="1" parent="1">
          <mxGeometry relative="1" as="geometry">
            <mxPoint x="205" y="635.65" as="sourcePoint" />
            <mxPoint x="626" y="635.65" as="targetPoint" />
          </mxGeometry>
        </mxCell>
        <mxCell id="kGb9gTylPbze4J-S7JM0-34" value="1.1 Not a user. Request for signup page" style="text;html=1;align=center;verticalAlign=middle;resizable=0;points=[];autosize=1;strokeColor=none;fillColor=none;" vertex="1" parent="1">
          <mxGeometry x="279" y="610" width="240" height="30" as="geometry" />
        </mxCell>
        <mxCell id="kGb9gTylPbze4J-S7JM0-35" value="1.2. Serve request" style="text;html=1;align=center;verticalAlign=middle;resizable=0;points=[];autosize=1;strokeColor=none;fillColor=none;" vertex="1" parent="1">
          <mxGeometry x="339" y="645.65" width="120" height="30" as="geometry" />
        </mxCell>
        <mxCell id="kGb9gTylPbze4J-S7JM0-36" style="edgeStyle=orthogonalEdgeStyle;rounded=0;orthogonalLoop=1;jettySize=auto;html=1;exitX=0.835;exitY=0.066;exitDx=0;exitDy=0;exitPerimeter=0;entryX=0.314;entryY=1;entryDx=0;entryDy=0;entryPerimeter=0;" edge="1" parent="1">
          <mxGeometry relative="1" as="geometry">
            <mxPoint x="203" y="700.65" as="sourcePoint" />
            <mxPoint x="629" y="700.65" as="targetPoint" />
          </mxGeometry>
        </mxCell>
        <mxCell id="kGb9gTylPbze4J-S7JM0-37" value="1.3 Fill form details" style="text;html=1;align=center;verticalAlign=middle;resizable=0;points=[];autosize=1;strokeColor=none;fillColor=none;" vertex="1" parent="1">
          <mxGeometry x="339" y="675.65" width="120" height="30" as="geometry" />
        </mxCell>
        <mxCell id="kGb9gTylPbze4J-S7JM0-38" value="" style="rounded=0;whiteSpace=wrap;html=1;rotation=90;" vertex="1" parent="1">
          <mxGeometry x="452.82" y="762.81" width="374.37" height="20" as="geometry" />
        </mxCell>
        <mxCell id="kGb9gTylPbze4J-S7JM0-39" value="" style="endArrow=classic;html=1;rounded=0;exitX=0.5;exitY=1;exitDx=0;exitDy=0;entryX=0.408;entryY=1;entryDx=0;entryDy=0;entryPerimeter=0;" edge="1" parent="1">
          <mxGeometry width="50" height="50" relative="1" as="geometry">
            <mxPoint x="630" y="764" as="sourcePoint" />
            <mxPoint x="630" y="720" as="targetPoint" />
            <Array as="points">
              <mxPoint x="500" y="764" />
              <mxPoint x="400" y="764" />
              <mxPoint x="400" y="720" />
              <mxPoint x="500" y="720" />
            </Array>
          </mxGeometry>
        </mxCell>
        <mxCell id="kGb9gTylPbze4J-S7JM0-40" value="1.3 Validate credentials" style="text;html=1;align=center;verticalAlign=middle;resizable=0;points=[];autosize=1;strokeColor=none;fillColor=none;" vertex="1" parent="1">
          <mxGeometry x="430" y="740" width="150" height="30" as="geometry" />
        </mxCell>
        <mxCell id="kGb9gTylPbze4J-S7JM0-41" value="" style="endArrow=classic;html=1;rounded=0;exitX=0.571;exitY=1.121;exitDx=0;exitDy=0;exitPerimeter=0;" edge="1" parent="1">
          <mxGeometry width="50" height="50" relative="1" as="geometry">
            <mxPoint x="628" y="798" as="sourcePoint" />
            <mxPoint x="200" y="797" as="targetPoint" />
          </mxGeometry>
        </mxCell>
        <mxCell id="kGb9gTylPbze4J-S7JM0-42" value="1.4 Show error if invalid" style="text;html=1;align=center;verticalAlign=middle;resizable=0;points=[];autosize=1;strokeColor=none;fillColor=none;" vertex="1" parent="1">
          <mxGeometry x="335" y="773.75" width="150" height="30" as="geometry" />
        </mxCell>
        <mxCell id="kGb9gTylPbze4J-S7JM0-43" value="" style="endArrow=classic;html=1;rounded=0;exitX=0.5;exitY=1;exitDx=0;exitDy=0;entryX=0.408;entryY=1;entryDx=0;entryDy=0;entryPerimeter=0;" edge="1" parent="1">
          <mxGeometry width="50" height="50" relative="1" as="geometry">
            <mxPoint x="630" y="864" as="sourcePoint" />
            <mxPoint x="630" y="820" as="targetPoint" />
            <Array as="points">
              <mxPoint x="500" y="864" />
              <mxPoint x="400" y="864" />
              <mxPoint x="400" y="820" />
              <mxPoint x="500" y="820" />
            </Array>
          </mxGeometry>
        </mxCell>
        <mxCell id="kGb9gTylPbze4J-S7JM0-44" value="1.5 Register user" style="text;html=1;align=center;verticalAlign=middle;resizable=0;points=[];autosize=1;strokeColor=none;fillColor=none;" vertex="1" parent="1">
          <mxGeometry x="450" y="840" width="110" height="30" as="geometry" />
        </mxCell>
        <mxCell id="kGb9gTylPbze4J-S7JM0-47" value="" style="endArrow=classic;html=1;rounded=0;exitX=0.8;exitY=1.095;exitDx=0;exitDy=0;exitPerimeter=0;" edge="1" parent="1">
          <mxGeometry width="50" height="50" relative="1" as="geometry">
            <mxPoint x="630" y="907" as="sourcePoint" />
            <mxPoint x="202" y="907" as="targetPoint" />
          </mxGeometry>
        </mxCell>
        <mxCell id="kGb9gTylPbze4J-S7JM0-48" value="1.7 Redirect to landing page" style="text;html=1;align=center;verticalAlign=middle;resizable=0;points=[];autosize=1;strokeColor=none;fillColor=none;" vertex="1" parent="1">
          <mxGeometry x="332" y="880" width="170" height="30" as="geometry" />
        </mxCell>
        <mxCell id="kGb9gTylPbze4J-S7JM0-50" value="" style="endArrow=none;dashed=1;html=1;rounded=0;exitX=0.5;exitY=1;exitDx=0;exitDy=0;" edge="1" parent="1" source="kGb9gTylPbze4J-S7JM0-1" target="kGb9gTylPbze4J-S7JM0-49">
          <mxGeometry width="50" height="50" relative="1" as="geometry">
            <mxPoint x="200" y="80" as="sourcePoint" />
            <mxPoint x="200" y="1040" as="targetPoint" />
          </mxGeometry>
        </mxCell>
        <mxCell id="kGb9gTylPbze4J-S7JM0-49" value="" style="shape=image;html=1;verticalAlign=top;verticalLabelPosition=bottom;labelBackgroundColor=#ffffff;imageAspect=0;aspect=fixed;image=https://cdn0.iconfinder.com/data/icons/evericons-16px/16/x-128.png" vertex="1" parent="1">
          <mxGeometry x="168" y="960" width="64" height="64" as="geometry" />
        </mxCell>
        <mxCell id="kGb9gTylPbze4J-S7JM0-52" value="" style="endArrow=none;dashed=1;html=1;rounded=0;exitX=0.5;exitY=1;exitDx=0;exitDy=0;" edge="1" parent="1" source="kGb9gTylPbze4J-S7JM0-2" target="kGb9gTylPbze4J-S7JM0-51">
          <mxGeometry width="50" height="50" relative="1" as="geometry">
            <mxPoint x="640" y="80" as="sourcePoint" />
            <mxPoint x="640" y="1040" as="targetPoint" />
          </mxGeometry>
        </mxCell>
        <mxCell id="kGb9gTylPbze4J-S7JM0-51" value="" style="shape=image;html=1;verticalAlign=top;verticalLabelPosition=bottom;labelBackgroundColor=#ffffff;imageAspect=0;aspect=fixed;image=https://cdn0.iconfinder.com/data/icons/evericons-16px/16/x-128.png" vertex="1" parent="1">
          <mxGeometry x="608.01" y="960" width="64" height="64" as="geometry" />
        </mxCell>
      </root>
    </mxGraphModel>
  </diagram>
</mxfile>
